PathFileType	4	(X/Y/Z)	/Users/itak/Documents/Research/Walk-IL/dataset/trc/00229_00009.trc
DataRate	CameraRate	NumFrames	NumMarkers	Units	OrigDataRate	OrigDataStartFrame	OrigNumFrames
100.000000	100.000000	4	53	mm	100.000000	200	802
Frame#	Time	RPSI			LPSI			L3			STRN			T10			C7			CLAV			RBAK			LBAK			LSHO			LUPA			LAEL			LAOL			LWTS			LWPS			LFRA			LIFD			LHPS			LHTS			RSHO			RUPA			RAEL			RAOL			RWTS			RWPS			RFRA			RIFD			RHTS			RHPS			RBHD			LFHD			RFHD			LBHD			LHIP			RHIP			RASI			LASI			LKNE			LTHI			LANK			LTIP			LTOE			LMT5			LHEE			RKNE			RTHI			RTIP			RTOE			RMT1			RMT5			RHEE			LMT1			RANK			
		X1	Y1	Z1	X2	Y2	Z2	X3	Y3	Z3	X4	Y4	Z4	X5	Y5	Z5	X6	Y6	Z6	X7	Y7	Z7	X8	Y8	Z8	X9	Y9	Z9	X10	Y10	Z10	X11	Y11	Z11	X12	Y12	Z12	X13	Y13	Z13	X14	Y14	Z14	X15	Y15	Z15	X16	Y16	Z16	X17	Y17	Z17	X18	Y18	Z18	X19	Y19	Z19	X20	Y20	Z20	X21	Y21	Z21	X22	Y22	Z22	X23	Y23	Z23	X24	Y24	Z24	X25	Y25	Z25	X26	Y26	Z26	X27	Y27	Z27	X28	Y28	Z28	X29	Y29	Z29	X30	Y30	Z30	X31	Y31	Z31	X32	Y32	Z32	X33	Y33	Z33	X34	Y34	Z34	X35	Y35	Z35	X36	Y36	Z36	X37	Y37	Z37	X38	Y38	Z38	X39	Y39	Z39	X40	Y40	Z40	X41	Y41	Z41	X42	Y42	Z42	X43	Y43	Z43	X44	Y44	Z44	X45	Y45	Z45	X46	Y46	Z46	X47	Y47	Z47	X48	Y48	Z48	X49	Y49	Z49	X50	Y50	Z50	X51	Y51	Z51	X52	Y52	Z52	X53	Y53	Z53	

201	2	485.9565734863281	1035.249145507812	772.5860595703125	384.246826171875	1033.805053710938	710.89404296875	425.8914184570312	1118.682983398438	733.8079833984375	555.217529296875	1287.350463867188	509.211181640625	435.1502380371094	1242.490234375	738.6022338867188	469.9216003417969	1500.163452148438	665.980712890625	546.3739013671875	1406.418090820312	526.3924560546875	496.1918029785156	1367.139404296875	776.9493408203125	361.8738403320312	1462.145629882812	634.0079345703125	353.6621398925781	1459.449340820312	528.7776489257812	267.5798950195312	1341.609985351562	525.6541748046875	250.1285858154297	1129.098388671875	518.142822265625	269.0456237792969	1115.474853515625	602.458251953125	349.6320190429688	903.5921630859375	449.3482971191406	267.9603881835938	880.762939453125	446.8321838378906	250.7277221679688	1022.066223144531	492.9050598144531	357.8628845214844	709.2379150390625	435.7827453613281	283.9857788085938	794.0438842773438	428.9854125976562	348.1978759765625	803.9121704101562	406.4183044433594	645.0267944335938	1456.670043945312	696.7275390625	694.8785400390625	1395.76318359375	748.66796875	734.0775756835938	1122.082641601562	806.8706665039062	640.499755859375	1108.144287109375	793.9611206054688	781.2113037109375	900.0723876953125	685.326416015625	809.9557495117188	894.4547729492188	764.45751953125	762.3184204101562	1054.673583984375	795.5106811523438	803.70849609375	707.7239379882812	683.2549438476562	826.0789794921875	782.257080078125	668.0607299804688	841.5442504882812	788.17431640625	738.6497192382812	564.3929443359375	1664.039306640625	618.8350830078125	556.7557373046875	1654.140869140625	390.9356689453125	647.8956298828125	1650.0078125	431.5207824707031	459.6499633789062	1663.193237304688	525.4597778320312	325.8019409179688	969.4669189453125	546.9754028320312	628.9994506835938	993.5230102539062	753.8737182617188	654.1455688476562	1028.783813476562	649.9234619140625	422.9580993652344	1009.560607910156	492.9189147949219	465.945556640625	523.8955688476562	392.8810424804688	406.9979858398438	654.447021484375	432.6387634277344	500.9579772949219	36.84355926513672	441.7186889648438	468.6976318359375	291.1879272460938	422.6837463378906	608.9246215820312	83.84328460693359	261.1955871582031	521.9813232421875	49.77470779418945	317.5175170898438	532.2444458007812	43.85700225830078	516.3356323242188	565.3313598632812	507.8077087402344	774.0343017578125	642.9464111328125	766.5597534179688	734.3402099609375	544.5193481445312	392.2499389648438	778.533935546875	596.4773559570312	40.75334167480469	706.0706176757812	525.9525756835938	40.06355285644531	703.32763671875	552.2365112304688	32.88389587402344	823.9270629882812	363.9448547363281	35.52663040161133	852.75244140625	633.0154418945312	68.35975646972656	335.0335083007812	448.5359802246094	33.39483642578125	864.4555053710938	
202	2.01	489.4049072265625	1034.060546875	768.1324462890625	387.36669921875	1032.422607421875	706.783447265625	429.1076049804688	1117.571044921875	729.6981811523438	556.78466796875	1286.221313476562	503.9914855957031	438.6170349121094	1241.366943359375	734.4326171875	472.69384765625	1498.994995117188	661.4436645507812	547.9859619140625	1405.287231445312	521.193115234375	500.1048278808594	1366.069213867188	772.2371826171875	364.4515991210938	1460.817749023438	630.4122314453125	355.2057495117188	1458.143920898438	525.294921875	268.9083557128906	1340.40283203125	523.188720703125	250.7949066162109	1127.973754882812	516.4921264648438	270.7069396972656	1114.54736328125	600.6411743164062	348.2287292480469	901.6143798828125	447.3739929199219	266.3679504394531	879.2101440429688	446.1181640625	250.4523773193359	1020.876586914062	491.7077941894531	354.8688659667969	706.9814453125	435.4556884765625	281.5867919921875	792.2886352539062	428.7741394042969	345.6175842285156	801.5010986328125	405.3583068847656	648.1026611328125	1455.666381835938	690.5863037109375	698.4523315429688	1394.6953125	741.989990234375	738.4971313476562	1120.9296875	799.2739868164062	644.80908203125	1107.032348632812	787.4931030273438	784.1011962890625	899.4664916992188	676.1443481445312	813.8560791015625	893.4780883789062	754.8706665039062	766.5960693359375	1053.533935546875	787.3043823242188	806.5067138671875	707.1398315429688	672.9259643554688	828.6748657226562	781.7135009765625	657.7694702148438	845.1217651367188	787.32373046875	728.1668090820312	566.5206909179688	1662.87451171875	613.7014770507812	556.4977416992188	1653.400756835938	385.9508056640625	648.117919921875	1649.409423828125	425.4952697753906	460.6642456054688	1662.05419921875	521.3626708984375	328.4285278320312	968.1668701171875	542.9548950195312	632.4049072265625	992.5067749023438	748.6914672851562	657.026611328125	1027.930053710938	644.7130737304688	425.2987976074219	1008.553344726562	488.6710510253906	468.5633239746094	522.8583984375	388.87158203125	408.95556640625	652.9642944335938	428.5837097167969	508.677978515625	35.47952651977539	429.5209045410156	473.5878295898438	289.9326171875	415.1799621582031	613.91064453125	85.86807250976562	248.330078125	528.0685424804688	50.11410140991211	305.3019409179688	540.923828125	41.9011116027832	503.93603515625	567.6038208007812	507.3143310546875	770.4403686523438	645.8335571289062	765.6751098632812	729.6092529296875	546.2221069335938	391.7283325195312	775.7894287109375	596.4769287109375	40.73881530761719	706.072021484375	526.0170288085938	40.11199951171875	703.3600463867188	552.2972412109375	32.83424377441406	824.0035400390625	363.9948425292969	36.06039047241211	852.819580078125	639.0735473632812	69.70899200439453	321.6618041992188	448.6781311035156	33.61875534057617	864.3129272460938	
203	2.02	492.7551879882812	1032.7939453125	763.57861328125	390.4429321289062	1030.918090820312	702.4224243164062	432.2013854980469	1116.387084960938	725.3744506835938	558.3170776367188	1285.054443359375	498.6875305175781	441.9276428222656	1240.191528320312	730.0905151367188	475.3349304199219	1497.773071289062	656.7599487304688	549.5531616210938	1404.122314453125	515.9020385742188	503.7950744628906	1364.950561523438	767.372802734375	366.931396484375	1459.438842773438	626.6051635742188	356.694580078125	1456.786376953125	521.604736328125	270.1986083984375	1339.16162109375	520.4710083007812	251.4148254394531	1126.808349609375	514.6151123046875	272.281494140625	1113.585571289062	598.5897216796875	346.884033203125	899.6869506835938	445.1564636230469	264.8766479492188	877.6012573242188	445.23681640625	250.1705932617188	1019.644165039062	490.2994079589844	352.2408752441406	704.8179321289062	434.9055480957031	279.4075012207031	790.500244140625	428.3943481445312	343.1919555664062	799.1484985351562	404.0823669433594	651.0010375976562	1454.638916015625	684.4144897460938	701.8163452148438	1393.6181640625	735.3225708007812	742.6875610351562	1119.760009765625	791.6837768554688	648.8909912109375	1105.887939453125	780.970703125	786.8319091796875	898.9160766601562	666.90234375	817.5505981445312	892.5165405273438	745.2164306640625	770.6531982421875	1052.3828125	779.0928955078125	809.1362915039062	706.6215209960938	662.4374389648438	831.1201171875	781.248046875	647.3742065429688	848.496826171875	786.5117797851562	717.5753784179688	568.561279296875	1661.648315429688	608.5198974609375	556.2123413085938	1652.63525390625	380.9835205078125	648.3169555664062	1648.794555664062	419.4684143066406	461.5769348144531	1660.865478515625	517.1436767578125	331.1214294433594	966.717529296875	538.671142578125	635.710205078125	991.4664916992188	743.4271850585938	659.8720703125	1027.106811523438	639.4397583007812	427.7074584960938	1007.513916015625	484.2140502929688	471.3501892089844	521.647216796875	384.8350830078125	411.0179748535156	651.31396484375	424.3987121582031	515.6361083984375	34.17503356933594	418.1501159667969	478.2138671875	288.6056518554688	407.9478149414062	618.3665161132812	87.58848571777344	236.3894500732422	533.5028076171875	50.37433242797852	293.9340515136719	548.74267578125	40.04882049560547	492.3590087890625	570.0354614257812	506.7646179199219	766.6015014648438	648.826904296875	764.7792358398438	724.6792602539062	548.07861328125	391.1402893066406	772.82568359375	596.485595703125	40.72866821289062	706.0729370117188	526.0917358398438	40.16093444824219	703.3930053710938	552.3609008789062	32.79048156738281	824.0765380859375	364.04638671875	36.64694213867188	852.8853149414062	644.488037109375	70.75814819335938	309.2303466796875	448.8138732910156	33.91008377075195	864.1341552734375	
204	2.03	496.0321960449219	1031.444458007812	758.9209594726562	393.4856567382812	1029.298461914062	697.8280639648438	435.1889343261719	1115.116333007812	720.833984375	559.8114013671875	1283.851196289062	493.2958068847656	445.0888061523438	1238.95556640625	725.5764770507812	477.8318176269531	1496.494995117188	651.9398803710938	551.0562744140625	1402.923461914062	510.5194396972656	507.2631530761719	1363.775756835938	762.37060546875	369.3016052246094	1458.0029296875	622.5994262695312	358.1155090332031	1455.37255859375	517.7130737304688	271.4452209472656	1337.871826171875	517.5036010742188	251.9842681884766	1125.587524414062	512.5009155273438	273.7753295898438	1112.57177734375	596.2952270507812	345.6101684570312	897.8096923828125	442.6659240722656	263.4959716796875	875.9274291992188	444.15966796875	249.8903961181641	1018.351379394531	488.6653137207031	350.0322265625	702.7511596679688	434.031494140625	277.473388671875	788.6693115234375	427.78955078125	340.9392395019531	796.865478515625	402.5316162109375	653.7156982421875	1453.585693359375	678.2147827148438	704.9708251953125	1392.529663085938	728.6646728515625	746.6485595703125	1118.571899414062	784.1110229492188	652.752685546875	1104.720092773438	774.39892578125	789.4127197265625	898.4215087890625	657.6159057617188	821.0435180664062	891.5696411132812	735.5151977539062	774.4934692382812	1051.220092773438	770.8892211914062	811.6102905273438	706.1690063476562	651.8024291992188	833.428466796875	780.863525390625	636.8941650390625	851.67626953125	785.7376708984375	706.8963012695312	570.5050048828125	1660.361572265625	603.2943115234375	555.9072265625	1651.84619140625	376.0209655761719	648.4900512695312	1648.16064453125	413.4462280273438	462.4179077148438	1659.624389648438	512.8143920898438	333.8972778320312	965.1336059570312	534.1079711914062	638.9285888671875	990.3919067382812	738.0601806640625	662.7033081054688	1026.306518554688	634.0802001953125	430.1880798339844	1006.438537597656	479.5346984863281	474.3218688964844	520.2813110351562	380.7320861816406	413.2306213378906	649.51708984375	420.0652160644531	521.7534790039062	32.92981719970703	407.7462463378906	482.5753784179688	287.1964416503906	401.0144653320312	622.3627319335938	88.83111572265625	225.5199737548828	538.3096313476562	50.44893264770508	283.5558471679688	555.609375	38.32580184936523	481.7603759765625	572.6270751953125	506.1609802246094	762.5364990234375	651.9382934570312	763.8621215820312	719.5594482421875	550.0817260742188	390.4930725097656	769.6641235351562	596.5022583007812	40.72234344482422	706.073486328125	526.1766967773438	40.2108268737793	703.43212890625	552.4317016601562	32.74693298339844	824.1513671875	364.10888671875	37.30770492553711	852.9591064453125	649.2950439453125	71.36592102050781	297.9067687988281	448.9369201660156	34.27932357788086	863.9337158203125	
